<mxfile host="app.diagrams.net" modified="2023-05-22T17:09:57.156Z" agent="Mozilla/5.0 (Windows NT 10.0; Win64; x64) AppleWebKit/537.36 (KHTML, like Gecko) Chrome/113.0.0.0 Safari/537.36" etag="ns7mKWEHNP70qDsohgAl" version="21.3.2" type="device">
  <diagram name="P치gina-1" id="tGasbVyNzPwbUm8kwMrS">
    <mxGraphModel dx="1434" dy="764" grid="1" gridSize="10" guides="1" tooltips="1" connect="1" arrows="1" fold="1" page="1" pageScale="1" pageWidth="827" pageHeight="1169" math="0" shadow="0">
      <root>
        <mxCell id="0" />
        <mxCell id="1" parent="0" />
        <mxCell id="ZWd0pGW9QoSTtCzK0dMh-1" value="Usuario" style="shape=umlActor;verticalLabelPosition=bottom;verticalAlign=top;html=1;outlineConnect=0;" vertex="1" parent="1">
          <mxGeometry x="125" y="40" width="30" height="60" as="geometry" />
        </mxCell>
        <mxCell id="ZWd0pGW9QoSTtCzK0dMh-4" value="" style="endArrow=none;html=1;rounded=0;" edge="1" parent="1">
          <mxGeometry width="50" height="50" relative="1" as="geometry">
            <mxPoint x="421" y="640" as="sourcePoint" />
            <mxPoint x="420.5" y="120" as="targetPoint" />
          </mxGeometry>
        </mxCell>
        <mxCell id="ZWd0pGW9QoSTtCzK0dMh-5" value="Training Generator" style="text;html=1;strokeColor=none;fillColor=none;align=center;verticalAlign=middle;whiteSpace=wrap;rounded=0;" vertex="1" parent="1">
          <mxGeometry x="370" y="70" width="110" height="30" as="geometry" />
        </mxCell>
        <mxCell id="ZWd0pGW9QoSTtCzK0dMh-6" value="" style="endArrow=none;html=1;rounded=0;" edge="1" parent="1">
          <mxGeometry width="50" height="50" relative="1" as="geometry">
            <mxPoint x="700" y="640" as="sourcePoint" />
            <mxPoint x="699.5" y="120" as="targetPoint" />
          </mxGeometry>
        </mxCell>
        <mxCell id="ZWd0pGW9QoSTtCzK0dMh-7" value="Base de datos" style="text;html=1;strokeColor=none;fillColor=none;align=center;verticalAlign=middle;whiteSpace=wrap;rounded=0;" vertex="1" parent="1">
          <mxGeometry x="660" y="70" width="80" height="30" as="geometry" />
        </mxCell>
        <mxCell id="ZWd0pGW9QoSTtCzK0dMh-8" value="" style="endArrow=none;html=1;rounded=0;" edge="1" parent="1">
          <mxGeometry width="50" height="50" relative="1" as="geometry">
            <mxPoint x="140" y="640" as="sourcePoint" />
            <mxPoint x="139.5" y="120" as="targetPoint" />
          </mxGeometry>
        </mxCell>
        <mxCell id="ZWd0pGW9QoSTtCzK0dMh-19" value="" style="endArrow=none;html=1;rounded=0;" edge="1" parent="1">
          <mxGeometry width="50" height="50" relative="1" as="geometry">
            <mxPoint x="980" y="640" as="sourcePoint" />
            <mxPoint x="980" y="120" as="targetPoint" />
          </mxGeometry>
        </mxCell>
        <mxCell id="ZWd0pGW9QoSTtCzK0dMh-20" value="Strava" style="text;html=1;strokeColor=none;fillColor=none;align=center;verticalAlign=middle;whiteSpace=wrap;rounded=0;" vertex="1" parent="1">
          <mxGeometry x="940" y="70" width="80" height="30" as="geometry" />
        </mxCell>
        <mxCell id="ZWd0pGW9QoSTtCzK0dMh-38" value="" style="endArrow=classic;html=1;rounded=0;" edge="1" parent="1">
          <mxGeometry width="50" height="50" relative="1" as="geometry">
            <mxPoint x="140" y="160" as="sourcePoint" />
            <mxPoint x="980" y="160" as="targetPoint" />
          </mxGeometry>
        </mxCell>
        <mxCell id="ZWd0pGW9QoSTtCzK0dMh-39" value="Carga de actividades realizadas" style="edgeLabel;html=1;align=center;verticalAlign=middle;resizable=0;points=[];" vertex="1" connectable="0" parent="ZWd0pGW9QoSTtCzK0dMh-38">
          <mxGeometry x="-0.0857" y="3" relative="1" as="geometry">
            <mxPoint x="36" y="-7" as="offset" />
          </mxGeometry>
        </mxCell>
        <mxCell id="ZWd0pGW9QoSTtCzK0dMh-40" value="" style="endArrow=classic;html=1;rounded=0;" edge="1" parent="1">
          <mxGeometry width="50" height="50" relative="1" as="geometry">
            <mxPoint x="140" y="200" as="sourcePoint" />
            <mxPoint x="420" y="200" as="targetPoint" />
          </mxGeometry>
        </mxCell>
        <mxCell id="ZWd0pGW9QoSTtCzK0dMh-41" value="Iniciar sincronizaci칩n" style="edgeLabel;html=1;align=center;verticalAlign=middle;resizable=0;points=[];" vertex="1" connectable="0" parent="ZWd0pGW9QoSTtCzK0dMh-40">
          <mxGeometry x="0.1571" y="-3" relative="1" as="geometry">
            <mxPoint x="-22" y="-13" as="offset" />
          </mxGeometry>
        </mxCell>
        <mxCell id="ZWd0pGW9QoSTtCzK0dMh-42" value="" style="endArrow=classic;html=1;rounded=0;" edge="1" parent="1">
          <mxGeometry width="50" height="50" relative="1" as="geometry">
            <mxPoint x="420" y="240" as="sourcePoint" />
            <mxPoint x="980" y="240" as="targetPoint" />
          </mxGeometry>
        </mxCell>
        <mxCell id="ZWd0pGW9QoSTtCzK0dMh-43" value="GET Actividades usuario" style="edgeLabel;html=1;align=center;verticalAlign=middle;resizable=0;points=[];" vertex="1" connectable="0" parent="ZWd0pGW9QoSTtCzK0dMh-42">
          <mxGeometry x="-0.1321" y="3" relative="1" as="geometry">
            <mxPoint x="-103" y="-7" as="offset" />
          </mxGeometry>
        </mxCell>
        <mxCell id="ZWd0pGW9QoSTtCzK0dMh-44" value="" style="endArrow=classic;html=1;rounded=0;" edge="1" parent="1">
          <mxGeometry width="50" height="50" relative="1" as="geometry">
            <mxPoint x="980" y="280" as="sourcePoint" />
            <mxPoint x="420" y="280" as="targetPoint" />
          </mxGeometry>
        </mxCell>
        <mxCell id="ZWd0pGW9QoSTtCzK0dMh-45" value="Devoluci칩n actividades" style="edgeLabel;html=1;align=center;verticalAlign=middle;resizable=0;points=[];" vertex="1" connectable="0" parent="ZWd0pGW9QoSTtCzK0dMh-44">
          <mxGeometry x="0.5821" y="-2" relative="1" as="geometry">
            <mxPoint x="23" y="-8" as="offset" />
          </mxGeometry>
        </mxCell>
        <mxCell id="ZWd0pGW9QoSTtCzK0dMh-46" value="" style="endArrow=classic;html=1;rounded=0;" edge="1" parent="1">
          <mxGeometry width="50" height="50" relative="1" as="geometry">
            <mxPoint x="420" y="320" as="sourcePoint" />
            <mxPoint x="980" y="320" as="targetPoint" />
          </mxGeometry>
        </mxCell>
        <mxCell id="ZWd0pGW9QoSTtCzK0dMh-47" value="Get vueltas de actividad" style="edgeLabel;html=1;align=center;verticalAlign=middle;resizable=0;points=[];" vertex="1" connectable="0" parent="ZWd0pGW9QoSTtCzK0dMh-46">
          <mxGeometry x="-0.5393" y="-5" relative="1" as="geometry">
            <mxPoint x="11" y="-15" as="offset" />
          </mxGeometry>
        </mxCell>
        <mxCell id="ZWd0pGW9QoSTtCzK0dMh-48" value="" style="endArrow=classic;html=1;rounded=0;" edge="1" parent="1">
          <mxGeometry width="50" height="50" relative="1" as="geometry">
            <mxPoint x="980" y="360" as="sourcePoint" />
            <mxPoint x="420" y="360" as="targetPoint" />
          </mxGeometry>
        </mxCell>
        <mxCell id="ZWd0pGW9QoSTtCzK0dMh-49" value="Devoluci칩n vueltas actividad" style="edgeLabel;html=1;align=center;verticalAlign=middle;resizable=0;points=[];" vertex="1" connectable="0" parent="ZWd0pGW9QoSTtCzK0dMh-48">
          <mxGeometry x="0.4857" y="-3" relative="1" as="geometry">
            <mxPoint x="-4" y="-7" as="offset" />
          </mxGeometry>
        </mxCell>
        <mxCell id="ZWd0pGW9QoSTtCzK0dMh-50" value="" style="curved=1;endArrow=classic;html=1;rounded=0;" edge="1" parent="1">
          <mxGeometry width="50" height="50" relative="1" as="geometry">
            <mxPoint x="420" y="360" as="sourcePoint" />
            <mxPoint x="420" y="320" as="targetPoint" />
            <Array as="points">
              <mxPoint x="360" y="360" />
              <mxPoint x="360" y="320" />
            </Array>
          </mxGeometry>
        </mxCell>
        <mxCell id="ZWd0pGW9QoSTtCzK0dMh-51" value="Por cada actividad" style="edgeLabel;html=1;align=center;verticalAlign=middle;resizable=0;points=[];" vertex="1" connectable="0" parent="ZWd0pGW9QoSTtCzK0dMh-50">
          <mxGeometry x="0.125" y="-8" relative="1" as="geometry">
            <mxPoint x="-68" y="10" as="offset" />
          </mxGeometry>
        </mxCell>
        <mxCell id="ZWd0pGW9QoSTtCzK0dMh-52" value="" style="endArrow=classic;html=1;rounded=0;" edge="1" parent="1">
          <mxGeometry width="50" height="50" relative="1" as="geometry">
            <mxPoint x="420" y="400" as="sourcePoint" />
            <mxPoint x="700" y="400" as="targetPoint" />
          </mxGeometry>
        </mxCell>
        <mxCell id="ZWd0pGW9QoSTtCzK0dMh-53" value="Actualizar tiempos de vueltas" style="edgeLabel;html=1;align=center;verticalAlign=middle;resizable=0;points=[];" vertex="1" connectable="0" parent="ZWd0pGW9QoSTtCzK0dMh-52">
          <mxGeometry x="-0.3143" y="-2" relative="1" as="geometry">
            <mxPoint x="44" y="-12" as="offset" />
          </mxGeometry>
        </mxCell>
        <mxCell id="ZWd0pGW9QoSTtCzK0dMh-54" value="" style="endArrow=classic;html=1;rounded=0;" edge="1" parent="1">
          <mxGeometry width="50" height="50" relative="1" as="geometry">
            <mxPoint x="700" y="440" as="sourcePoint" />
            <mxPoint x="420" y="440" as="targetPoint" />
          </mxGeometry>
        </mxCell>
        <mxCell id="ZWd0pGW9QoSTtCzK0dMh-55" value="Tiempos actualizados" style="edgeLabel;html=1;align=center;verticalAlign=middle;resizable=0;points=[];" vertex="1" connectable="0" parent="ZWd0pGW9QoSTtCzK0dMh-54">
          <mxGeometry x="0.1" y="5" relative="1" as="geometry">
            <mxPoint x="14" y="-15" as="offset" />
          </mxGeometry>
        </mxCell>
        <mxCell id="ZWd0pGW9QoSTtCzK0dMh-56" value="" style="endArrow=classic;html=1;rounded=0;" edge="1" parent="1">
          <mxGeometry width="50" height="50" relative="1" as="geometry">
            <mxPoint x="420" y="480" as="sourcePoint" />
            <mxPoint x="140" y="480" as="targetPoint" />
          </mxGeometry>
        </mxCell>
        <mxCell id="ZWd0pGW9QoSTtCzK0dMh-57" value="Tiempos actualizados" style="edgeLabel;html=1;align=center;verticalAlign=middle;resizable=0;points=[];" vertex="1" connectable="0" parent="ZWd0pGW9QoSTtCzK0dMh-56">
          <mxGeometry x="0.1" y="5" relative="1" as="geometry">
            <mxPoint x="14" y="-15" as="offset" />
          </mxGeometry>
        </mxCell>
        <mxCell id="ZWd0pGW9QoSTtCzK0dMh-58" value="" style="endArrow=classic;html=1;rounded=0;" edge="1" parent="1">
          <mxGeometry width="50" height="50" relative="1" as="geometry">
            <mxPoint x="140" y="520" as="sourcePoint" />
            <mxPoint x="420" y="520" as="targetPoint" />
          </mxGeometry>
        </mxCell>
        <mxCell id="ZWd0pGW9QoSTtCzK0dMh-59" value="Ver detalle d칤a de entrenamiento" style="edgeLabel;html=1;align=center;verticalAlign=middle;resizable=0;points=[];" vertex="1" connectable="0" parent="ZWd0pGW9QoSTtCzK0dMh-58">
          <mxGeometry x="0.1714" y="-2" relative="1" as="geometry">
            <mxPoint x="-24" y="-12" as="offset" />
          </mxGeometry>
        </mxCell>
        <mxCell id="ZWd0pGW9QoSTtCzK0dMh-60" value="" style="endArrow=classic;html=1;rounded=0;" edge="1" parent="1">
          <mxGeometry width="50" height="50" relative="1" as="geometry">
            <mxPoint x="420" y="560" as="sourcePoint" />
            <mxPoint x="700" y="560" as="targetPoint" />
          </mxGeometry>
        </mxCell>
        <mxCell id="ZWd0pGW9QoSTtCzK0dMh-61" value="Get datos d칤a de entrenamiento" style="edgeLabel;html=1;align=center;verticalAlign=middle;resizable=0;points=[];" vertex="1" connectable="0" parent="ZWd0pGW9QoSTtCzK0dMh-60">
          <mxGeometry x="0.1071" y="-3" relative="1" as="geometry">
            <mxPoint x="-15" y="-13" as="offset" />
          </mxGeometry>
        </mxCell>
        <mxCell id="ZWd0pGW9QoSTtCzK0dMh-64" value="" style="endArrow=classic;html=1;rounded=0;" edge="1" parent="1">
          <mxGeometry width="50" height="50" relative="1" as="geometry">
            <mxPoint x="700" y="600" as="sourcePoint" />
            <mxPoint x="420" y="600" as="targetPoint" />
          </mxGeometry>
        </mxCell>
        <mxCell id="ZWd0pGW9QoSTtCzK0dMh-65" value="Devoluci칩n datos d칤a entrenamiento con valores" style="edgeLabel;html=1;align=center;verticalAlign=middle;resizable=0;points=[];" vertex="1" connectable="0" parent="ZWd0pGW9QoSTtCzK0dMh-64">
          <mxGeometry x="0.1" y="5" relative="1" as="geometry">
            <mxPoint x="14" y="-15" as="offset" />
          </mxGeometry>
        </mxCell>
        <mxCell id="ZWd0pGW9QoSTtCzK0dMh-66" value="" style="endArrow=classic;html=1;rounded=0;" edge="1" parent="1">
          <mxGeometry width="50" height="50" relative="1" as="geometry">
            <mxPoint x="420" y="640" as="sourcePoint" />
            <mxPoint x="140" y="640" as="targetPoint" />
          </mxGeometry>
        </mxCell>
        <mxCell id="ZWd0pGW9QoSTtCzK0dMh-67" value="Devoluci칩n vista de d칤a entrenamiento con valores" style="edgeLabel;html=1;align=center;verticalAlign=middle;resizable=0;points=[];" vertex="1" connectable="0" parent="ZWd0pGW9QoSTtCzK0dMh-66">
          <mxGeometry x="0.1" y="5" relative="1" as="geometry">
            <mxPoint x="14" y="-15" as="offset" />
          </mxGeometry>
        </mxCell>
      </root>
    </mxGraphModel>
  </diagram>
</mxfile>
